<svg width="100" height="40" viewBox="0 0 100 40" fill="none" xmlns="http://www.w3.org/2000/svg"><path fill-rule="evenodd" clip-rule="evenodd" d="M63.563 0c-6.822 0-12.36 5.538-12.36 12.36 0 6.821 5.538 12.36 12.36 12.36 6.822 0 12.36-5.539 12.36-12.36C75.923 5.538 70.385 0 63.563 0Zm0 18.78c-3.611 0-6.5-2.89-6.5-6.5 0-3.612 2.889-6.502 6.5-6.502 3.612 0 6.501 2.89 6.501 6.501 0 3.612-2.89 6.501-6.5 6.501ZM31.461 32.584l.963-1.123c-.803-.963-2.247-1.525-3.692-1.605-2.729 0-4.896 2.086-4.896 4.735 0 2.729 2.167 4.815 4.896 4.815a5.293 5.293 0 0 0 3.692-1.525l-.963-1.043c-.723.642-1.686 1.124-2.649 1.124-1.846 0-3.37-1.365-3.37-3.29 0-1.847 1.444-3.291 3.37-3.291.963 0 2.007.481 2.649 1.203Zm4.654 6.902.963-2.167h4.655l.963 2.167h1.686l-4.174-9.47h-1.605l-4.173 9.47h1.685Zm1.525-3.611 1.766-4.174 1.846 4.174H37.64Zm18.219 3.531-.08-6.982-2.97 6.019h-1.043l-2.97-6.02v6.983h-1.444v-9.39h1.926l3.05 6.26 3.05-6.26h1.925v9.39H55.86Zm13.001-6.18c0-2.086-1.364-3.21-3.692-3.21h-3.772v9.39h1.606v-2.809h2.166c2.408 0 3.692-1.204 3.692-3.37Zm-3.772 1.926h-2.086v-3.691h2.086c1.365 0 2.248.561 2.248 1.765 0 1.284-.803 1.926-2.248 1.926Zm15.089.321c0 2.488-1.525 3.933-4.093 3.933-2.569 0-4.094-1.525-4.094-3.933v-5.457h1.525v5.457c0 1.606.963 2.569 2.569 2.569 1.525 0 2.488-.963 2.488-2.569v-5.457h1.605v5.457Zm9.71-3.13.642-1.444a6.405 6.405 0 0 0-3.37-.963c-1.926 0-3.371 1.043-3.371 2.648 0 1.832 1.592 2.296 3.003 2.707 1.124.328 2.133.622 2.133 1.547 0 .722-.642 1.124-1.765 1.124-1.044 0-2.247-.562-3.21-1.445l-.643 1.445c1.044.963 2.328 1.525 3.853 1.525 2.086 0 3.611-1.044 3.611-2.73 0-1.886-1.608-2.364-3.025-2.786-1.115-.332-2.111-.628-2.111-1.547 0-.562.562-.963 1.525-.963.642 0 1.685.24 2.728.883ZM24.078 12.36C24.077 5.539 29.615 0 36.437 0c6.741 0 12.36 5.618 12.36 12.36v11.797h-5.86V12.36c0-3.612-2.889-6.501-6.5-6.501-3.612 0-6.501 2.889-6.501 6.5v11.798h-5.859V12.36ZM18.78.563 3.29 39.406h6.34L25.12.562h-6.34Zm-8.507 9.952c.32.722.481 1.525.481 2.247 0 2.568-1.524 4.655-3.691 5.457L0 .563h6.26l4.013 9.952ZM93.74.562l-9.47 23.515h6.42L100 .562h-6.26Zm-12.44 0 3.933 10.032c.24.642.481 1.445.4 2.167 0 2.568-1.524 4.575-3.69 5.457L74.878.563H81.3Z" fill="#000"/></svg>
