<svg width="100" height="40" viewBox="0 0 100 40" fill="none" xmlns="http://www.w3.org/2000/svg">
  <path fill-rule="evenodd" clip-rule="evenodd" d="M63.563 0c-6.822 0-12.36 5.538-12.36 12.36 0 6.821 5.538 12.36 12.36 12.36 6.822 0 12.36-5.539 12.36-12.36C75.923 5.538 70.385 0 63.563 0Zm0 18.78c-3.611 0-6.5-2.89-6.5-6.5 0-3.612 2.889-6.502 6.5-6.502 3.612 0 6.501 2.89 6.501 6.501 0 3.612-2.89 6.501-6.5 6.501ZM24.078 12.36C24.077 5.539 29.615 0 36.437 0c6.741 0 12.36 5.618 12.36 12.36v11.797h-5.86V12.36c0-3.612-2.889-6.501-6.5-6.501-3.612 0-6.501 2.889-6.501 6.5v11.798h-5.859V12.36ZM18.78.563 3.29 39.406h6.34L25.12.562h-6.34Zm-8.507 9.952c.32.722.481 1.525.481 2.247 0 2.568-1.524 4.655-3.691 5.457L0 .563h6.26l4.013 9.952ZM93.74.562l-9.47 23.515h6.42L100 .562h-6.26Zm-12.44 0 3.933 10.032c.24.642.481 1.445.4 2.167 0 2.568-1.524 4.575-3.69 5.457L74.878.563H81.3Z" fill="#000"/>
</svg>